<?xml version="1.0" encoding="UTF-8"?>
<!DOCTYPE svg PUBLIC "-//W3C//DTD SVG 1.1//EN" "http://www.w3.org/Graphics/SVG/1.1/DTD/svg11.dtd">
<svg xmlns="http://www.w3.org/2000/svg" version="1.1" width="470px" height="358px" style="shape-rendering:geometricPrecision; text-rendering:geometricPrecision; image-rendering:optimizeQuality; fill-rule:evenodd; clip-rule:evenodd" xmlns:xlink="http://www.w3.org/1999/xlink">
    <g><path style="opacity:0.988" fill="#da0000" d="M 171.5,-0.5 C 213.5,-0.5 255.5,-0.5 297.5,-0.5C 297.343,0.873441 297.51,2.20677 298,3.5C 354.941,121.047 412.108,238.381 469.5,355.5C 469.5,356.167 469.5,356.833 469.5,357.5C 427.833,357.5 386.167,357.5 344.5,357.5C 308.389,281.944 271.722,206.61 234.5,131.5C 197.294,206.579 160.627,281.913 124.5,357.5C 82.8333,357.5 41.1667,357.5 -0.5,357.5C -0.5,356.833 -0.5,356.167 -0.5,355.5C 56.892,238.381 114.059,121.047 171,3.5C 171.49,2.20677 171.657,0.873441 171.5,-0.5 Z"/></g>
</svg>
